<?xml version="1.0" encoding="utf-8"?>
<!-- Generator: Adobe Illustrator 19.2.1, SVG Export Plug-In . SVG Version: 6.00 Build 0)  -->
<svg version="1.1" id="Layer_1" xmlns="http://www.w3.org/2000/svg" xmlns:xlink="http://www.w3.org/1999/xlink" x="0px" y="0px"
	 viewBox="0 0 7618.6 1671.3" style="enable-background:new 0 0 7618.6 1671.3;" xml:space="preserve">
<style type="text/css">
	.st0{fill:#FAAF40;}
</style>
<g id="XMLID_294_">
	<g id="XMLID_308_">
		<path id="XMLID_310_" class="st0" d="M0,981.5v696.8h898.9c290.8,0,508.2-294.9,508.2-558.5V121.6h-10.6
			c-105.8,0-171.4,24-212.1,77.9v881.7c-4.2,273.5-234.4,503.2-506.5,503.2c-271.9,0-493.1-229.1-493.1-510.7
			C184.8,792.1,406,563,677.9,563c145,0,287.9,65.1,381.1,171.6V422.5H578.5C259.5,422.5,0,673.2,0,981.5z"/>
		<path id="XMLID_309_" class="st0" d="M677.9,709.9c195,0,359.7,166.6,359.7,363.8s-164.7,363.8-359.7,363.8
			c-190.9,0-346.2-163.2-346.2-363.8C331.7,873.1,487,709.9,677.9,709.9"/>
	</g>
	<path id="XMLID_305_" class="st0" d="M2986.6,843.3c-90.8-121.3-246.2-199.9-405.4-199.9c-273.4,0-495.7,230.5-495.7,513.9
		s222.4,513.9,495.7,513.9s509.6-230.5,509.6-513.9c0-1.6-0.2-3.2-0.2-4.8h0.2V0h-104.2L2986.6,843.3L2986.6,843.3z M2581.2,1567
		c-215.9,0-391.5-183.8-391.5-409.7s175.6-409.7,391.5-409.7s405.4,183.8,405.4,409.7C2986.6,1383.3,2797.1,1567,2581.2,1567z"/>
	<path id="XMLID_302_" class="st0" d="M7113.1,643.5c-278.7,0-505.5,230.5-505.5,513.9s226.8,513.9,505.5,513.9
		s505.5-230.5,505.5-513.9S7391.9,643.5,7113.1,643.5z M7113.1,1567c-221.3,0-401.4-183.8-401.4-409.7s180-409.7,401.4-409.7
		c221.3,0,401.3,183.8,401.3,409.7C7514.4,1383.3,7334.4,1567,7113.1,1567z"/>
	<path id="XMLID_299_" class="st0" d="M5970.8,643.5c-278.7,0-505.5,230.5-505.5,513.9s226.8,513.9,505.5,513.9
		c135.3,0,262.5-53.7,358-151.1l-74.4-73c-75.8,77.3-176.5,119.9-283.6,119.9c-208.5,0-380.4-163.1-399.6-371
		c77.3-0.1,234.4-0.4,391.5-1.1c492.2-2.2,492.2-2.2,492.6-58c0.9-133.1-49.8-257.9-142.6-351.4
		C6221.7,693.9,6100.3,643.5,5970.8,643.5z M5574.6,1091.9c30.8-194.9,196.7-344.2,396.2-344.2c101.5,0,196.7,39.5,268,111.3
		c61.7,62.1,99.7,141.8,109.7,228.3C6218.2,1090.2,5851.2,1091.6,5574.6,1091.9z"/>
	<path id="XMLID_296_" class="st0" d="M3799.5,643.5c-278.7,0-505.5,230.5-505.5,513.9s226.8,513.9,505.5,513.9
		c135.3,0,262.5-53.7,358-151.1l-74.4-73c-75.8,77.3-176.5,119.9-283.6,119.9c-208.5,0-380.4-163.1-399.6-371
		c77.3-0.1,234.4-0.4,391.5-1.1c492.2-2.2,492.2-2.2,492.6-58c0.9-133.1-49.8-257.9-142.6-351.4
		C4050.3,693.9,3929,643.5,3799.5,643.5z M3403.3,1091.9C3434,897,3600,747.7,3799.5,747.7c101.5,0,196.7,39.5,268,111.3
		c61.7,62.1,99.7,141.8,109.7,228.3C4046.9,1090.2,3679.8,1091.6,3403.3,1091.9z"/>
	<polygon id="XMLID_295_" class="st0" points="4561.6,1672.7 4561.6,1216.6 4893.5,1216.6 5224.4,1672.7 5353.2,1672.7 
		4991.1,1173.6 5404.4,625.5 5267.2,625.5 4906.7,1112.4 4561.6,1112.4 4561.6,0 4457.4,0 4457.4,1672.7 	"/>
</g>
</svg>
